<svg width="60" height="97" viewBox="0 0 60 97" fill="none" xmlns="http://www.w3.org/2000/svg">
<path d="M40.463 8.43877H36.4729M36.4729 8.43877V24.5782M36.4729 8.43877V3M36.4729 24.5782H57V94H35.4975M36.4729 24.5782H15.9901M35.4975 94H23.9704M35.4975 94V77.8605H23.9704V94M23.9704 94H2.99997V24.5782H15.9901M15.9901 24.5782V13.6565M15.9901 13.6565H10.7586M15.9901 13.6565V9.85374M15.9901 13.6565H20.6453M36.6059 56.8571H45.2069V65.4354H36.6059V56.8571ZM36.6059 36.7823H45.2069V45.3605H36.6059V36.7823ZM14.0394 36.7823H22.6404V45.3605H14.0394V36.7823ZM14.0394 56.8571H22.6404V65.4354H14.0394V56.8571Z" stroke="#4BB462" stroke-width="5" stroke-linecap="round" stroke-linejoin="round"/>
</svg>
