<svg width="69" height="69" viewBox="0 0 69 69" fill="none" xmlns="http://www.w3.org/2000/svg">
<path d="M13.5 34.6705H9.64773M50.7954 22.9091L35.5227 36.2046L24.6818 28.4318M35.0114 10.6023V14.4546M58.875 34.6705H55.0227M35.0114 55.9773V59.8296M66 34.5C66 43.2046 62.9204 50.625 56.7614 56.7614C50.625 62.9205 43.2045 66 34.5 66C25.7954 66 18.3636 62.9205 12.2045 56.7614C6.06818 50.625 3 43.2046 3 34.5C3 25.7955 6.06818 18.3636 12.2045 12.2045C18.3636 6.06818 25.7954 3 34.5 3C43.2045 3 50.625 6.06818 56.7614 12.2045C62.9204 18.3636 66 25.7955 66 34.5Z" stroke="#4BB462" stroke-width="5" stroke-linecap="round" stroke-linejoin="round"/>
</svg>
