<svg width="104" height="104" viewBox="0 0 104 104" fill="none" xmlns="http://www.w3.org/2000/svg">
<path d="M50.7963 3V26.9302M50.7963 26.9302C51.0517 26.9195 51.3085 26.9142 51.5667 26.9142C58.6286 26.9142 64.6419 29.3965 69.6067 34.3613C69.8083 34.5629 70.0062 34.7662 70.2005 34.9712C71.4746 36.322 72.5714 37.7451 73.4907 39.2404C75.9089 43.1536 77.118 47.5619 77.118 52.4654C77.118 52.6589 77.118 52.8515 77.118 53.0432M50.7963 26.9302V31.4402M50.7963 26.9302C44.0657 27.101 38.2985 29.578 33.4947 34.3613C28.5299 39.3688 26.0476 45.4035 26.0476 52.4654C26.0476 52.6589 26.0476 52.8515 26.0476 53.0432M77.118 53.0432H101M77.118 53.0432C76.9808 59.8559 74.477 65.6767 69.6067 70.5054C64.6419 75.4915 58.6286 77.9846 51.5667 77.9846C51.3085 77.9846 51.0517 77.9793 50.7963 77.9686M77.118 53.0432H72.8808M74.0685 24.3783L83.8268 13.5287M25.6944 28.5513L14.8127 18.793M26.0476 53.0432H30.4773M26.0476 53.0432C26.1836 59.8559 28.6659 65.6767 33.4947 70.5054C38.2985 75.3092 44.0657 77.7969 50.7963 77.9686M26.0476 53.0432H3.00006M50.7963 101V77.9686M50.7963 77.9686V73.2018M18.3115 86.3947L28.0698 75.545M87.7108 84.3082L76.8612 74.5179M66.6535 52.4334C66.6535 56.6063 65.1769 60.1586 62.2238 63.0904C59.292 66.0436 55.7397 67.5201 51.5667 67.5201C47.3938 67.5201 43.8307 66.0436 40.8776 63.0904C37.9458 60.1586 36.4799 56.6063 36.4799 52.4334C36.4799 48.2604 37.9458 44.6973 40.8776 41.7442C43.8307 38.8124 47.3938 37.3466 51.5667 37.3466C55.7397 37.3466 59.292 38.8124 62.2238 41.7442C65.1769 44.6973 66.6535 48.2604 66.6535 52.4334Z" stroke="#FFD600" stroke-width="5" stroke-linecap="round" stroke-linejoin="round"/>
</svg>
