<svg width="200" height="200" viewBox="0 0 200 200" fill="none" xmlns="http://www.w3.org/2000/svg">
<g filter="url(#filter0_d)">
<circle cx="100" cy="96" r="96" fill="#D60707"/>
</g>
<path d="M105.207 105.495H95.2385L90.9504 73.5427H110.609L105.207 105.495ZM102.924 126.02C102.812 126.056 102.719 126.112 102.645 126.186C102.014 126.556 101.309 126.741 100.529 126.741C99.1181 126.741 97.9115 126.093 96.9091 124.799C95.9067 123.505 95.4056 121.952 95.4056 120.139C95.4056 118.327 95.9067 116.774 96.9091 115.48C97.9115 114.185 99.1181 113.538 100.529 113.538C101.309 113.538 102.014 113.742 102.645 114.148C102.719 114.185 102.794 114.241 102.868 114.315C103.313 114.574 103.722 114.962 104.093 115.48C105.095 116.774 105.597 118.327 105.597 120.139C105.597 121.952 105.095 123.505 104.093 124.799C103.722 125.28 103.332 125.687 102.924 126.02ZM158 139H41.9999L100.028 28L158 139Z" stroke="white" stroke-width="5" stroke-linecap="round" stroke-linejoin="round"/>
<defs>
<filter id="filter0_d" x="0" y="0" width="200" height="200" filterUnits="userSpaceOnUse" color-interpolation-filters="sRGB">
<feFlood flood-opacity="0" result="BackgroundImageFix"/>
<feColorMatrix in="SourceAlpha" type="matrix" values="0 0 0 0 0 0 0 0 0 0 0 0 0 0 0 0 0 0 127 0"/>
<feOffset dy="4"/>
<feGaussianBlur stdDeviation="2"/>
<feColorMatrix type="matrix" values="0 0 0 0 0 0 0 0 0 0 0 0 0 0 0 0 0 0 0.25 0"/>
<feBlend mode="normal" in2="BackgroundImageFix" result="effect1_dropShadow"/>
<feBlend mode="normal" in="SourceGraphic" in2="effect1_dropShadow" result="shape"/>
</filter>
</defs>
</svg>
