<svg width="192" height="192" viewBox="0 0 192 192" fill="none" xmlns="http://www.w3.org/2000/svg">
<circle cx="96" cy="96.0005" r="96" fill="#FFA800"/>
<path d="M106.127 101.122C107.86 100.659 109.581 101.384 111.289 103.296C112.998 105.196 112.137 109.014 108.708 114.751C105.279 120.487 102.974 125.78 101.794 130.629L90.3948 131.304M106.127 101.122C106.592 102.321 106.598 103.634 106.146 105.058C105.656 106.608 104.789 107.702 103.546 108.339C102.315 108.977 101.586 108.695 101.36 107.496C101.147 106.283 101.392 105.046 102.095 103.784C102.811 102.521 104.155 101.634 106.127 101.122ZM106.127 101.122C104.457 97.7802 100.949 96.1117 95.6043 96.1162C90.2619 96.1214 87.081 98.0148 86.0615 101.796M86.0615 101.796C88.0276 102.311 89.3685 103.198 90.084 104.459C90.7996 105.717 91.0477 106.951 90.8282 108.161C90.607 109.371 89.8754 109.655 88.6332 109.014C87.3935 108.374 86.5299 107.281 86.0426 105.733C85.5949 104.308 85.6011 102.995 86.0615 101.796ZM86.0615 101.796C84.3227 101.334 82.6019 102.056 80.8991 103.962C79.1947 105.869 80.0551 109.69 83.4803 115.425C86.9083 121.158 89.2132 126.451 90.3948 131.304M90.3948 131.304H106.654M90.3948 131.304H85.3455M106.654 131.304C106.592 130.554 106.899 129.298 107.578 127.536C108.922 124.024 111.453 119.75 115.171 114.713C125.332 100.965 131.154 88.5612 132.636 77.5006C133.905 68.1022 131.857 60.2472 126.494 53.9358C119.937 46.2246 110.215 41.9128 97.3283 41.0005C82.6701 41.9128 72.0627 46.2246 65.5061 53.9358C60.1428 60.2472 58.0954 68.1022 59.364 77.5006C60.8462 88.5612 66.668 100.965 76.8294 114.713C80.5474 119.75 83.0783 124.024 84.4223 127.536C85.1006 129.298 85.4083 130.554 85.3455 131.304M106.654 131.304C108.84 134.228 108.84 136.528 106.654 138.203M106.654 131.304L106.711 152C108.884 150.326 108.884 148.026 106.711 145.102H106.673M85.3455 131.304C83.2228 133.879 83.2228 136.178 85.3455 138.203H85.3644M82.5005 93.0979L75.7178 76.8444M111.252 93.0979L118.034 76.8444M97.0645 90.0984V69.8519M106.654 138.203H106.673C108.859 141.127 108.859 143.427 106.673 145.102M106.654 138.203H85.3644M106.673 145.102H85.3832M106.56 152H85.3832C83.2605 149.976 83.2605 147.676 85.3832 145.102M85.3832 145.102H85.3644C83.2416 143.077 83.2416 140.777 85.3644 138.203" stroke="white" stroke-width="4" stroke-linecap="round" stroke-linejoin="round"/>
</svg>
