<svg width="201" height="200" viewBox="0 0 201 200" fill="none" xmlns="http://www.w3.org/2000/svg">
<g filter="url(#filter0_d)">
<circle cx="99.9253" cy="99" r="96" fill="#FF7C7C"/>
</g>
<path d="M158.925 125C158.925 129.146 157.45 132.676 154.498 135.59C151.572 138.53 148.027 140 143.865 140C139.703 140 136.146 138.53 133.194 135.59C130.268 132.676 128.805 129.146 128.805 125C128.805 120.854 130.268 117.312 133.194 114.372C136.146 111.457 139.703 110 143.865 110C148.027 110 151.572 111.457 154.498 114.372C157.45 117.312 158.925 120.854 158.925 125ZM115.599 125C115.599 129.146 114.123 132.676 111.172 135.59C108.245 138.53 104.701 140 100.539 140C96.3764 140 92.8195 138.53 89.8681 135.59C86.9418 132.676 85.4786 129.146 85.4786 125C85.4786 120.854 86.9418 117.312 89.8681 114.372C92.8195 111.457 96.3764 110 100.539 110C104.701 110 108.245 111.457 111.172 114.372C114.123 117.312 115.599 120.854 115.599 125ZM72.0456 125C72.0456 129.146 70.5698 132.676 67.6184 135.59C64.6921 138.53 61.1478 140 56.9854 140C52.8231 140 49.2662 138.53 46.3147 135.59C43.3884 132.676 41.9253 129.146 41.9253 125C41.9253 120.854 43.3884 117.312 46.3147 114.372C49.2662 111.457 52.8231 110 56.9854 110C61.1478 110 64.6921 111.457 67.6184 114.372C70.5698 117.312 72.0456 120.854 72.0456 125Z" stroke="white" stroke-width="5" stroke-linecap="round" stroke-linejoin="round"/>
<defs>
<filter id="filter0_d" x="0.925293" y="0" width="200" height="200" filterUnits="userSpaceOnUse" color-interpolation-filters="sRGB">
<feFlood flood-opacity="0" result="BackgroundImageFix"/>
<feColorMatrix in="SourceAlpha" type="matrix" values="0 0 0 0 0 0 0 0 0 0 0 0 0 0 0 0 0 0 127 0"/>
<feOffset dx="1" dy="1"/>
<feGaussianBlur stdDeviation="2"/>
<feColorMatrix type="matrix" values="0 0 0 0 0 0 0 0 0 0 0 0 0 0 0 0 0 0 0.45 0"/>
<feBlend mode="normal" in2="BackgroundImageFix" result="effect1_dropShadow"/>
<feBlend mode="normal" in="SourceGraphic" in2="effect1_dropShadow" result="shape"/>
</filter>
</defs>
</svg>
