<svg width="192" height="192" viewBox="0 0 192 192" fill="none" xmlns="http://www.w3.org/2000/svg">
<g clip-path="url(#clip0)">
<circle cx="95.9999" cy="96.0002" r="96" fill="#2E63B4"/>
<path d="M120 86.1626L66 86.1626M102.009 149.373C96.6018 159.269 90.5958 159.269 83.9909 149.373C78.5837 159.543 72.5867 159.543 66 149.373L66 138.418L66 86.1626C68.0191 73.1193 73.3175 62.2647 81.8952 53.5988L81.8952 41.0005L103.533 41.0005L103.533 53.5988L104.105 53.5988C112.468 63.3191 117.766 74.1737 120 86.1626L120 138.418L120 149.373C114.012 159.196 108.015 159.196 102.009 149.373ZM103.533 53.5988L81.8952 53.5988L103.533 53.5988ZM120 138.418L66 138.418L120 138.418Z" stroke="white" stroke-width="5" stroke-linecap="round" stroke-linejoin="round"/>
</g>
<defs>
<clipPath id="clip0">
<rect width="192" height="192" fill="white"/>
</clipPath>
</defs>
</svg>
