<svg width="193" height="192" viewBox="0 0 193 192" fill="none" xmlns="http://www.w3.org/2000/svg">
<circle cx="96.9253" cy="96" r="96" fill="#11D2A4"/>
<path d="M128.075 111.31C128.075 119.514 125.186 126.516 119.408 132.314C113.629 138.112 106.652 141.012 98.4759 141.012C90.3134 141.012 83.3429 138.112 77.5644 132.314C71.786 126.516 68.8967 119.514 68.8967 111.31C68.8967 103.119 71.786 96.1249 77.5644 90.3266C83.3429 84.5282 90.3134 81.629 98.4759 81.629C106.652 81.629 113.629 84.5282 119.408 90.3266C125.186 96.1249 128.075 103.119 128.075 111.31ZM65.0579 54.8471H129.914V67.7819H65.0579V54.8471ZM118.276 111.31C118.276 116.865 116.323 121.609 112.417 125.542C108.497 129.476 103.763 131.442 98.2133 131.442C92.6907 131.442 87.9696 129.476 84.05 125.542C80.1304 121.609 78.1705 116.865 78.1705 111.31C78.1705 105.755 80.1304 101.011 84.05 97.0778C87.9696 93.1582 92.6907 91.1984 98.2133 91.1984C103.763 91.1984 108.497 93.1582 112.417 97.0778C116.323 101.011 118.276 105.755 118.276 111.31ZM53.9253 41H140.925V152H53.9253V41Z" stroke="white" stroke-width="5" stroke-linecap="round" stroke-linejoin="round"/>
</svg>
