<svg width="200" height="197" viewBox="0 0 200 197" fill="none" xmlns="http://www.w3.org/2000/svg">
<g filter="url(#filter0_d)">
<ellipse cx="100" cy="94.5" rx="96" ry="94.5" fill="#FF7A00"/>
</g>
<path d="M118.49 26.3707C91.3363 19.0975 62.4746 28.8919 45.3623 51.1885C28.2499 73.484 26.2562 103.89 40.3121 128.229C49.4898 144.22 64.6847 155.877 82.5108 160.603C88.4146 162.189 94.4998 162.995 100.614 163C125.426 162.95 148.332 149.685 160.719 128.19C173.105 106.695 173.093 80.2292 160.688 58.7458C151.511 42.7533 136.316 31.0961 118.49 26.3707V26.3707ZM163.158 110.272C156.367 135.607 134.979 154.357 108.967 157.782C82.9562 161.205 57.4425 148.627 44.324 125.912C32.7613 105.859 32.7581 81.1675 44.3134 61.1111C55.8698 41.0548 77.2369 28.6703 100.389 28.6078C106.094 28.612 111.774 29.3648 117.285 30.8459C133.903 35.2967 148.071 46.1651 156.674 61.0603C165.277 75.9564 167.608 93.658 163.155 110.272H163.158Z" fill="white"/>
<path d="M72.9963 45.2311C74.8127 44.2054 76.6825 43.2763 78.5983 42.447C79.3633 42.1158 79.8922 41.4044 79.9851 40.5804C80.0792 39.7565 79.7223 38.9453 79.0513 38.4537C78.3803 37.961 77.4956 37.8622 76.7317 38.1935C74.661 39.0907 72.6405 40.0952 70.6767 41.2037C59.2612 47.6965 50.3054 57.7336 45.1864 69.7732C44.6821 70.9529 45.2366 72.3152 46.4236 72.8153C47.6118 73.3154 48.9815 72.7654 49.4848 71.5847C54.2063 60.4783 62.4666 51.2195 72.9963 45.2311Z" fill="white"/>
<path d="M154.586 114.183C154.021 113.944 153.382 113.939 152.811 114.167C152.241 114.396 151.785 114.84 151.545 115.402C146.852 126.416 138.643 135.597 128.177 141.534C124.528 143.608 120.659 145.275 116.639 146.502C115.54 146.837 114.854 147.919 115.027 149.046C115.199 150.173 116.178 151.004 117.327 151C117.558 151.002 117.788 150.967 118.009 150.899C122.358 149.568 126.546 147.765 130.496 145.521C141.835 139.084 150.73 129.134 155.815 117.198C156.315 116.028 155.765 114.679 154.586 114.183V114.183Z" fill="white"/>
<path d="M127.816 128.087C127.848 128.066 127.884 128.064 127.917 128.044C127.97 127.993 128.021 127.94 128.068 127.884C139.96 118.018 145.824 102.557 143.498 87.1957C143.498 87.1681 143.483 87.1448 143.483 87.1194C141.888 76.4307 136.388 66.7314 128.066 59.9305C128.008 59.8818 127.977 59.815 127.915 59.7705C127.89 59.7546 127.859 59.7525 127.834 59.7366C115.773 49.9325 99.467 47.3191 84.9913 52.87C84.9683 52.8817 84.9431 52.87 84.9179 52.8891L84.8885 52.9124C80.6295 54.4929 76.6707 56.798 73.1819 59.7271C73.1504 59.7483 73.1136 59.7504 73.0811 59.7705C73.0287 59.8214 72.9772 59.8743 72.93 59.9305C61.0387 69.7961 55.1764 85.2581 57.5016 100.619C57.5016 100.646 57.5173 100.669 57.5173 100.695C59.8068 116.269 70.2135 129.397 84.7626 135.067C99.3117 140.736 115.756 138.07 127.816 128.087V128.087ZM109.563 104.636C109.499 104.672 109.436 104.711 109.375 104.753L107.418 105.911L103.411 108.248C102.79 108.621 102.383 109.271 102.316 109.998C100.826 110.156 99.3201 110.106 97.8438 109.85C97.5101 108.727 96.7673 107.774 95.7652 107.183L91.4832 104.686C90.4696 104.104 89.2745 103.932 88.1412 104.208C87.5662 103.521 87.05 102.786 86.5988 102.012C86.1644 101.237 85.7961 100.426 85.4981 99.5888C86.304 98.7297 86.752 97.5899 86.7478 96.4066V91.4076C86.7499 90.2296 86.3029 89.0961 85.5002 88.2423C86.0217 86.8344 86.7331 85.506 87.6135 84.2941C88.2672 84.6141 89.0352 84.5802 89.6585 84.2041L91.3573 83.2115C91.3824 83.1967 91.4118 83.1946 91.437 83.1787C91.502 83.1426 91.565 83.1035 91.6248 83.0611L93.5827 81.9032L97.5888 79.5663C98.21 79.1934 98.6171 78.543 98.6853 77.8163C100.169 77.6585 101.667 77.7072 103.138 77.9604C103.478 79.0864 104.23 80.0399 105.24 80.6257L109.509 83.1299C110.525 83.72 111.729 83.8937 112.869 83.6162C113.439 84.3016 113.951 85.0325 114.402 85.8026C114.837 86.577 115.205 87.3885 115.503 88.2253C114.696 89.0845 114.249 90.2243 114.253 91.4076V96.4066C114.251 97.5846 114.697 98.7181 115.5 99.5719C114.977 100.982 114.265 102.311 113.382 103.524C112.728 103.222 111.969 103.254 111.343 103.61L109.669 104.589C109.634 104.608 109.598 104.617 109.563 104.636ZM77.7021 125.393L89.1926 108.687L93.4747 111.182L84.8885 129.573L77.7021 125.393ZM61.8183 89.6862L82.1625 91.4076V96.4161L61.7931 98.1301C61.5004 95.3229 61.5077 92.4923 61.8151 89.6862H61.8183ZM123.477 62.1477L111.801 79.1246L107.519 76.6277L116.243 57.9495C118.799 59.0851 121.226 60.4962 123.482 62.1572L123.477 62.1477ZM139.181 98.1185L118.838 96.4066V91.398L139.208 89.684C139.501 92.4913 139.493 95.3218 139.185 98.128L139.181 98.1185ZM127.023 122.689L116.349 107.183C117.827 105.381 118.995 103.342 119.805 101.15L138.417 102.719C136.681 110.376 132.713 117.332 127.023 122.689V122.689ZM134.248 74.2368C136.187 77.6288 137.613 81.2952 138.477 85.113L119.807 86.6851C119.423 85.5812 118.946 84.5134 118.379 83.4933C117.786 82.4816 117.11 81.5229 116.357 80.6257L127.041 65.1212C129.88 67.7802 132.309 70.8533 134.248 74.2368V74.2368ZM100.433 54.566C104.334 54.5734 108.211 55.1677 111.935 56.3298L103.955 73.4179C101.665 73.0196 99.3264 73.0122 97.0348 73.3968L89.0552 56.3086C92.7412 55.1592 96.5763 54.5724 100.433 54.566V54.566ZM81.0167 59.8362C82.2255 59.1381 83.471 58.5078 84.7458 57.9453L93.4568 76.6341L91.2586 77.9233L89.1958 79.1225L77.5059 62.1477C78.6338 61.314 79.8069 60.5428 81.0167 59.8362ZM73.9782 65.1255L84.6503 80.6426C83.173 82.4445 82.0062 84.4838 81.1961 86.6755L62.5832 85.1067C64.3166 77.4455 68.286 70.4857 73.9782 65.1255ZM66.753 113.577C64.8129 110.185 63.388 106.519 62.5234 102.701L81.193 101.129C81.5812 102.231 82.0628 103.297 82.6326 104.313C83.2233 105.322 83.898 106.279 84.6482 107.172L73.9636 122.702C71.1232 120.04 68.692 116.965 66.753 113.577V113.577ZM89.074 131.457L97.0411 114.388C98.2058 114.603 99.3873 114.717 100.571 114.73C101.709 114.718 102.846 114.612 103.966 114.41L111.939 131.484C104.486 133.787 96.5207 133.778 89.074 131.457V131.457ZM116.258 129.881L107.548 111.18L109.747 109.891L111.81 108.692L123.499 125.666C121.252 127.336 118.828 128.75 116.273 129.881H116.258Z" fill="white"/>
<path d="M102.957 84.3247C98.5796 83.1517 93.9831 85.2357 91.9795 89.3005C89.9759 93.3653 91.1228 98.2802 94.7191 101.038C98.3154 103.796 103.359 103.63 106.766 100.641C110.172 97.6519 110.993 92.6728 108.726 88.7483C107.472 86.562 105.395 84.9683 102.957 84.3247ZM105.095 94.7286C104.457 97.1061 102.108 98.6031 99.6841 98.1769C97.2598 97.7497 95.5627 95.5417 95.7747 93.0892C95.9867 90.6366 98.0371 88.7526 100.499 88.7483C100.917 88.7493 101.333 88.8048 101.737 88.9124C102.953 89.2386 103.991 90.0354 104.621 91.1258C105.25 92.2173 105.421 93.5142 105.095 94.7307V94.7286Z" fill="white"/>
<path d="M87 38.0005C87 39.1046 85.881 40 84.5 40C83.1201 40 82 39.1046 82 38.0005C82 36.8954 83.1201 36 84.5 36C85.881 36 87 36.8954 87 38.0005Z" fill="white"/>
<defs>
<filter id="filter0_d" x="0" y="0" width="200" height="197" filterUnits="userSpaceOnUse" color-interpolation-filters="sRGB">
<feFlood flood-opacity="0" result="BackgroundImageFix"/>
<feColorMatrix in="SourceAlpha" type="matrix" values="0 0 0 0 0 0 0 0 0 0 0 0 0 0 0 0 0 0 127 0"/>
<feOffset dy="4"/>
<feGaussianBlur stdDeviation="2"/>
<feColorMatrix type="matrix" values="0 0 0 0 0 0 0 0 0 0 0 0 0 0 0 0 0 0 0.25 0"/>
<feBlend mode="normal" in2="BackgroundImageFix" result="effect1_dropShadow"/>
<feBlend mode="normal" in="SourceGraphic" in2="effect1_dropShadow" result="shape"/>
</filter>
</defs>
</svg>
